<mxfile host="app.diagrams.net" modified="2021-01-12T12:41:31.841Z" agent="5.0 (Windows NT 10.0; Win64; x64) AppleWebKit/537.36 (KHTML, like Gecko) Chrome/87.0.4280.141 Safari/537.36 Edg/87.0.664.75" etag="WExFFVTJWN-lvSRwcXWh" version="14.1.9" type="github">
  <diagram id="WNwqs76uAWCXijltQj0V" name="Page-1">
    <mxGraphModel dx="1038" dy="588" grid="1" gridSize="10" guides="1" tooltips="1" connect="1" arrows="1" fold="1" page="1" pageScale="1" pageWidth="850" pageHeight="1100" math="0" shadow="0">
      <root>
        <mxCell id="0" />
        <mxCell id="1" parent="0" />
        <mxCell id="lCezspnuoQKdZOFVBlj4-37" style="edgeStyle=orthogonalEdgeStyle;rounded=0;orthogonalLoop=1;jettySize=auto;html=1;entryX=0.5;entryY=0;entryDx=0;entryDy=0;" parent="1" source="lCezspnuoQKdZOFVBlj4-1" target="lCezspnuoQKdZOFVBlj4-35" edge="1">
          <mxGeometry relative="1" as="geometry" />
        </mxCell>
        <mxCell id="lCezspnuoQKdZOFVBlj4-1" value="" style="rounded=1;whiteSpace=wrap;html=1;fillColor=#dae8fc;strokeColor=#6c8ebf;" parent="1" vertex="1">
          <mxGeometry x="400" y="40" width="10" height="420" as="geometry" />
        </mxCell>
        <mxCell id="lCezspnuoQKdZOFVBlj4-2" value="MLP" style="rounded=1;whiteSpace=wrap;html=1;" parent="1" vertex="1">
          <mxGeometry x="30" y="85" width="120" height="60" as="geometry" />
        </mxCell>
        <mxCell id="lCezspnuoQKdZOFVBlj4-3" value="QQ" style="rounded=1;whiteSpace=wrap;html=1;" parent="1" vertex="1">
          <mxGeometry x="30" y="175" width="120" height="60" as="geometry" />
        </mxCell>
        <mxCell id="lCezspnuoQKdZOFVBlj4-4" value="Rating" style="rounded=1;whiteSpace=wrap;html=1;" parent="1" vertex="1">
          <mxGeometry x="530" y="490" width="110" height="30" as="geometry" />
        </mxCell>
        <mxCell id="lCezspnuoQKdZOFVBlj4-5" value="Underwriting" style="rounded=1;whiteSpace=wrap;html=1;" parent="1" vertex="1">
          <mxGeometry x="520" y="440" width="110" height="30" as="geometry" />
        </mxCell>
        <mxCell id="lCezspnuoQKdZOFVBlj4-6" value="Identity" style="rounded=1;whiteSpace=wrap;html=1;" parent="1" vertex="1">
          <mxGeometry x="520" y="390" width="110" height="30" as="geometry" />
        </mxCell>
        <mxCell id="lCezspnuoQKdZOFVBlj4-7" value="Payment" style="rounded=1;whiteSpace=wrap;html=1;" parent="1" vertex="1">
          <mxGeometry x="520" y="340" width="110" height="30" as="geometry" />
        </mxCell>
        <mxCell id="lCezspnuoQKdZOFVBlj4-8" value="VIN(Vehicle information)" style="rounded=1;whiteSpace=wrap;html=1;" parent="1" vertex="1">
          <mxGeometry x="520" y="280" width="110" height="40" as="geometry" />
        </mxCell>
        <mxCell id="lCezspnuoQKdZOFVBlj4-9" value="Agent/Agency" style="rounded=1;whiteSpace=wrap;html=1;" parent="1" vertex="1">
          <mxGeometry x="520" y="230" width="110" height="30" as="geometry" />
        </mxCell>
        <mxCell id="lCezspnuoQKdZOFVBlj4-10" value="Cancel/reinistate" style="rounded=1;whiteSpace=wrap;html=1;" parent="1" vertex="1">
          <mxGeometry x="520" y="170" width="100" height="40" as="geometry" />
        </mxCell>
        <mxCell id="lCezspnuoQKdZOFVBlj4-11" value="Endrouse" style="rounded=1;whiteSpace=wrap;html=1;" parent="1" vertex="1">
          <mxGeometry x="520" y="110" width="90" height="40" as="geometry" />
        </mxCell>
        <mxCell id="lCezspnuoQKdZOFVBlj4-12" value="Renew" style="rounded=1;whiteSpace=wrap;html=1;" parent="1" vertex="1">
          <mxGeometry x="520" y="60" width="90" height="30" as="geometry" />
        </mxCell>
        <mxCell id="lCezspnuoQKdZOFVBlj4-13" value="Document" style="rounded=1;whiteSpace=wrap;html=1;" parent="1" vertex="1">
          <mxGeometry x="520" y="10" width="90" height="30" as="geometry" />
        </mxCell>
        <mxCell id="lCezspnuoQKdZOFVBlj4-14" value="3rd party apps" style="rounded=1;whiteSpace=wrap;html=1;" parent="1" vertex="1">
          <mxGeometry x="30" y="355" width="120" height="60" as="geometry" />
        </mxCell>
        <mxCell id="lCezspnuoQKdZOFVBlj4-15" value="Agency portal" style="rounded=1;whiteSpace=wrap;html=1;" parent="1" vertex="1">
          <mxGeometry x="30" y="265" width="120" height="60" as="geometry" />
        </mxCell>
        <mxCell id="lCezspnuoQKdZOFVBlj4-20" value="" style="endArrow=classic;startArrow=classic;html=1;entryX=0;entryY=0.5;entryDx=0;entryDy=0;" parent="1" target="lCezspnuoQKdZOFVBlj4-13" edge="1">
          <mxGeometry width="50" height="50" relative="1" as="geometry">
            <mxPoint x="410" y="60" as="sourcePoint" />
            <mxPoint x="460" y="10" as="targetPoint" />
          </mxGeometry>
        </mxCell>
        <mxCell id="lCezspnuoQKdZOFVBlj4-22" value="" style="endArrow=classic;startArrow=classic;html=1;exitX=1.4;exitY=0.19;exitDx=0;exitDy=0;exitPerimeter=0;" parent="1" edge="1">
          <mxGeometry width="50" height="50" relative="1" as="geometry">
            <mxPoint x="410" y="129.49999999999994" as="sourcePoint" />
            <mxPoint x="511" y="129.7" as="targetPoint" />
          </mxGeometry>
        </mxCell>
        <mxCell id="lCezspnuoQKdZOFVBlj4-23" value="" style="endArrow=classic;startArrow=classic;html=1;entryX=0;entryY=0.5;entryDx=0;entryDy=0;exitX=1.4;exitY=0.19;exitDx=0;exitDy=0;exitPerimeter=0;" parent="1" target="lCezspnuoQKdZOFVBlj4-12" edge="1">
          <mxGeometry width="50" height="50" relative="1" as="geometry">
            <mxPoint x="410" y="74.49999999999996" as="sourcePoint" />
            <mxPoint x="511.20000000000005" y="74.7" as="targetPoint" />
          </mxGeometry>
        </mxCell>
        <mxCell id="lCezspnuoQKdZOFVBlj4-24" value="" style="endArrow=classic;startArrow=classic;html=1;exitX=1.4;exitY=0.19;exitDx=0;exitDy=0;exitPerimeter=0;" parent="1" edge="1">
          <mxGeometry width="50" height="50" relative="1" as="geometry">
            <mxPoint x="419" y="189.5" as="sourcePoint" />
            <mxPoint x="520" y="189.70000000000005" as="targetPoint" />
          </mxGeometry>
        </mxCell>
        <mxCell id="lCezspnuoQKdZOFVBlj4-25" value="" style="endArrow=classic;startArrow=classic;html=1;exitX=1.4;exitY=0.19;exitDx=0;exitDy=0;exitPerimeter=0;" parent="1" edge="1">
          <mxGeometry width="50" height="50" relative="1" as="geometry">
            <mxPoint x="419" y="244.5" as="sourcePoint" />
            <mxPoint x="520" y="244.70000000000005" as="targetPoint" />
          </mxGeometry>
        </mxCell>
        <mxCell id="lCezspnuoQKdZOFVBlj4-26" value="" style="endArrow=classic;startArrow=classic;html=1;exitX=1.4;exitY=0.19;exitDx=0;exitDy=0;exitPerimeter=0;" parent="1" edge="1">
          <mxGeometry width="50" height="50" relative="1" as="geometry">
            <mxPoint x="419" y="299.5" as="sourcePoint" />
            <mxPoint x="520" y="299.70000000000005" as="targetPoint" />
          </mxGeometry>
        </mxCell>
        <mxCell id="lCezspnuoQKdZOFVBlj4-27" value="" style="endArrow=classic;startArrow=classic;html=1;exitX=1.4;exitY=0.19;exitDx=0;exitDy=0;exitPerimeter=0;" parent="1" edge="1">
          <mxGeometry width="50" height="50" relative="1" as="geometry">
            <mxPoint x="419" y="354" as="sourcePoint" />
            <mxPoint x="520" y="354.20000000000005" as="targetPoint" />
          </mxGeometry>
        </mxCell>
        <mxCell id="lCezspnuoQKdZOFVBlj4-28" value="" style="endArrow=classic;startArrow=classic;html=1;exitX=1.4;exitY=0.19;exitDx=0;exitDy=0;exitPerimeter=0;" parent="1" edge="1">
          <mxGeometry width="50" height="50" relative="1" as="geometry">
            <mxPoint x="419" y="404.5" as="sourcePoint" />
            <mxPoint x="520" y="404.70000000000005" as="targetPoint" />
          </mxGeometry>
        </mxCell>
        <mxCell id="lCezspnuoQKdZOFVBlj4-29" value="" style="endArrow=classic;startArrow=classic;html=1;exitX=1.4;exitY=0.19;exitDx=0;exitDy=0;exitPerimeter=0;entryX=0;entryY=0.5;entryDx=0;entryDy=0;" parent="1" target="lCezspnuoQKdZOFVBlj4-5" edge="1">
          <mxGeometry width="50" height="50" relative="1" as="geometry">
            <mxPoint x="410" y="440" as="sourcePoint" />
            <mxPoint x="511" y="440.20000000000005" as="targetPoint" />
          </mxGeometry>
        </mxCell>
        <mxCell id="lCezspnuoQKdZOFVBlj4-30" value="" style="endArrow=classic;startArrow=classic;html=1;exitX=1.4;exitY=0.19;exitDx=0;exitDy=0;exitPerimeter=0;entryX=0;entryY=0.25;entryDx=0;entryDy=0;" parent="1" target="lCezspnuoQKdZOFVBlj4-4" edge="1">
          <mxGeometry width="50" height="50" relative="1" as="geometry">
            <mxPoint x="410" y="460" as="sourcePoint" />
            <mxPoint x="520" y="475" as="targetPoint" />
          </mxGeometry>
        </mxCell>
        <mxCell id="lCezspnuoQKdZOFVBlj4-31" value="" style="endArrow=classic;startArrow=classic;html=1;exitX=1.4;exitY=0.19;exitDx=0;exitDy=0;exitPerimeter=0;entryX=-0.12;entryY=0.169;entryDx=0;entryDy=0;entryPerimeter=0;" parent="1" target="lCezspnuoQKdZOFVBlj4-1" edge="1">
          <mxGeometry width="50" height="50" relative="1" as="geometry">
            <mxPoint x="150" y="110" as="sourcePoint" />
            <mxPoint x="251" y="110.20000000000005" as="targetPoint" />
          </mxGeometry>
        </mxCell>
        <mxCell id="lCezspnuoQKdZOFVBlj4-32" value="" style="endArrow=classic;startArrow=classic;html=1;exitX=1.4;exitY=0.19;exitDx=0;exitDy=0;exitPerimeter=0;entryX=-0.12;entryY=0.169;entryDx=0;entryDy=0;entryPerimeter=0;" parent="1" edge="1">
          <mxGeometry width="50" height="50" relative="1" as="geometry">
            <mxPoint x="151.2" y="204.5" as="sourcePoint" />
            <mxPoint x="399.99999999999994" y="205.48000000000002" as="targetPoint" />
          </mxGeometry>
        </mxCell>
        <mxCell id="lCezspnuoQKdZOFVBlj4-33" value="" style="endArrow=classic;startArrow=classic;html=1;exitX=1.4;exitY=0.19;exitDx=0;exitDy=0;exitPerimeter=0;entryX=-0.12;entryY=0.169;entryDx=0;entryDy=0;entryPerimeter=0;" parent="1" edge="1">
          <mxGeometry width="50" height="50" relative="1" as="geometry">
            <mxPoint x="151.20000000000005" y="299.5" as="sourcePoint" />
            <mxPoint x="400" y="300.48" as="targetPoint" />
          </mxGeometry>
        </mxCell>
        <mxCell id="lCezspnuoQKdZOFVBlj4-34" value="" style="endArrow=classic;startArrow=classic;html=1;exitX=1.4;exitY=0.19;exitDx=0;exitDy=0;exitPerimeter=0;entryX=-0.12;entryY=0.169;entryDx=0;entryDy=0;entryPerimeter=0;" parent="1" edge="1">
          <mxGeometry width="50" height="50" relative="1" as="geometry">
            <mxPoint x="151.20000000000005" y="384.5" as="sourcePoint" />
            <mxPoint x="400" y="385.48" as="targetPoint" />
          </mxGeometry>
        </mxCell>
        <mxCell id="lCezspnuoQKdZOFVBlj4-35" value="" style="shape=datastore;whiteSpace=wrap;html=1;fillColor=#dae8fc;strokeColor=#6c8ebf;" parent="1" vertex="1">
          <mxGeometry x="375" y="530" width="60" height="60" as="geometry" />
        </mxCell>
        <mxCell id="-77_MEWghoO69OdpHiqg-1" value="solr" style="shape=cylinder3;whiteSpace=wrap;html=1;boundedLbl=1;backgroundOutline=1;size=15;" vertex="1" parent="1">
          <mxGeometry x="250" y="530" width="60" height="70" as="geometry" />
        </mxCell>
      </root>
    </mxGraphModel>
  </diagram>
</mxfile>
